<?xml version="1.0" standalone="no"?>
<!DOCTYPE svg PUBLIC "-//W3C//DTD SVG 20010904//EN"
 "http://www.w3.org/TR/2001/REC-SVG-20010904/DTD/svg10.dtd">
<svg version="1.0" xmlns="http://www.w3.org/2000/svg"
 width="512.000000pt" height="512.000000pt" viewBox="0 0 512.000000 512.000000"
 preserveAspectRatio="xMidYMid meet">
<metadata>
Created by potrace 1.14, written by Peter Selinger 2001-2017
</metadata>
<g transform="translate(0.000000,512.000000) scale(0.100000,-0.100000)"
fill="#000000" stroke="none">
<path d="M695 5115 c-5 -2 -44 -11 -84 -20 -41 -10 -82 -21 -90 -25 -9 -4 -41
-19 -71 -34 -162 -77 -297 -213 -370 -371 -35 -77 -39 -86 -57 -150 -17 -56
-18 -179 -20 -1925 -1 -1220 1 -1884 8 -1920 36 -197 143 -379 296 -501 44
-35 161 -99 218 -119 145 -51 70 -49 2040 -49 1222 0 1857 3 1890 10 342 70
585 312 651 644 11 58 13 386 11 1935 -2 1026 -5 1872 -8 1880 -3 8 -13 42
-23 74 -22 76 -76 196 -87 196 -5 0 -9 5 -9 11 0 6 -15 30 -32 53 -88 112
-230 217 -356 263 -148 54 -64 52 -2052 52 -1015 0 -1849 -2 -1855 -4z"/>
</g>
</svg>
