<svg width="192" height="192" viewBox="0 0 144 144" xmlns="http://www.w3.org/2000/svg">
 <g id="#269b25ff" transform="matrix(.46688 0 0 .48868 1.048 -.95152)">
  <g transform="matrix(.74219 0 0 .74219 -10.084 -1.9918)">
   <path d="m215.96 8.545c53.985-1.1853 108 19.488 146.43 55.705 30.446 28.137 51.423 65.519 58.773 105.41 7.1225 36.724 2.9898 75.364-11.992 109.87-17.663 41.29-50.535 76.57-91.629 97.781-35.364 18.815-76.772 26.595-117.02 23.375-41.76-3.6026-82.286-19.659-114.19-45.705-39.751-31.802-66.069-78.511-71.578-127.81-6.9871-54.302 11.726-110.89 49.679-151.79 15.231-16.771 33.647-30.741 53.779-41.776 29.703-15.999 63.664-24.576 97.744-25.057m-8.13 18.629c-5.698 0.34162-11.385 0.89546-17.035 1.7133-51.45 6.9981-98.73 36.331-127.29 77.693-17.977 25.803-28.599 56.207-30.711 87.124-1.1374 23.028 1.7332 46.347 9.5058 68.216 9.327 26.584 25.49 50.948 46.516 70.493 30.792 28.95 72.428 47.045 115.49 50.203 35.564 2.3758 72.027-4.4825 103.33-20.984 37.341-19.177 67.342-50.964 83.532-88.397 15.047-33.852 17.939-72.149 9.5545-107.95-9.0508-38.759-32.412-74.194-64.78-99.055-35.64-27.594-82.275-42.154-128.11-39.059z" fill="#269b25" stroke-width=".52949"/>
  </g>
  <g fill="#269b25" stroke-width=".39298">
   <path d="m218.73 65.486c3.9918-1.0449 8.8038-1.1179 12.048 1.6865 3.7547 3.0426 7.3003 6.3771 10.331 10.088 1.2864 2.5355 1.013 5.5281 0.89244 8.2595-0.3819 4.7367-4.3617 7.956-7.646 11.068-7.6942-6.7882-14.818-14.137-22.375-21.067-0.9045-1.0411-2.3959-1.8786-2.5125-3.3537 2.416-2.8774 5.3787-5.7816 9.262-6.6806z"/>
   <path d="m124.57 153.07c27.183-25.873 54.246-51.866 81.429-77.747 6.5646 5.943 12.779 12.228 19.264 18.244 2.0542 1.94 4.1928 3.8378 5.8491 6.112-27.034 25.9-54.153 51.72-81.175 77.628-3.3285 3.1194-7.8792 4.414-12.032 6.1658-7.24 2.8927-14.367 6.0352-21.583 8.9817-2.5326 0.76064-5.3707 1.9784-7.9676 0.93351-2.3597-1.4252-0.96881-4.6445-0.31356-6.6191 3.827-8.2902 7.5777-16.615 11.216-24.986 1.403-3.0848 2.6733-6.3656 5.3144-8.7128m7.0229 7.7562c-2.8421 6.1005-5.5636 12.251-8.5907 18.271 6.2872-2.7276 12.426-5.7701 18.709-8.5169-3.22-3.3922-6.6571-6.5922-10.118-9.7539z"/>
   <path d="m75.546 119.29c4.1004-2.4048 9.1736-1.9976 13.768-2.2204 17.772 0.0922 35.553-0.21129 53.325 0.16903-0.7879 2.3472-2.7738 4.0337-4.5426 5.724-2.4602 2.2627-4.8119 4.6253-7.244 6.9111-1.0532 0.8874-2.0622 2.2128-3.7506 1.721-14.074 0.26891-28.152-0.0653-42.226 0.0576-2.7135-0.11909-5.2099 2.3741-4.7396 5.0095-0.20099 24.967 0.05626 49.945-0.12059 74.916 0.19295 2.2935-0.603 5.2976 1.5758 6.9956 2.1386 1.9938 5.443 1.2178 8.1204 1.4867 25.471-0.0768 50.941-0.0115 76.408-0.023 2.1306 0.42642 3.9315-0.86821 5.3546-2.1782 1.411-1.3292 0.82409-3.4536 1.0693-5.1209 0.0482-12.174-0.0442-24.348-0.0643-36.522-0.88037-3.8186 3.1396-5.9084 5.3586-8.3594 3.2924-2.693 5.7244-6.5384 9.7243-8.3517 0.50251 18.755 0.20502 37.529 0.1809 56.287-0.23316 8.3709-6.7777 16.676-15.674 17.948-4.4501 1.0142-9.0691 0.86053-13.608 0.9143-22.781-0.0692-45.562-0.0115-68.344-0.023-6.235-0.0384-13.157-0.5263-18.098-4.6023-4.8762-3.638-7.248-9.5848-7.1113-15.393-0.28945-23.042 0-46.092-0.13267-69.138 0.07237-4.9903-0.33365-10.065 0.88038-14.967 1.7125-4.7406 5.041-9.0778 9.8891-11.241z"/>
  </g>
 </g>
</svg>


